<svg width="24" height="24" viewBox="0 0 24 24" fill="none" xmlns="http://www.w3.org/2000/svg">
    <path
        d="M17.1447 12.1193C15.8582 11.3484 14.4776 10.7537 13.0387 10.3506C11.3282 9.83373 10.1013 9.30114 9.35781 8.75286C8.61435 8.20459 8.23858 7.51841 8.23048 6.69435C8.20996 6.25814 8.29312 5.82334 8.47291 5.42696C8.6527 5.03059 8.92378 4.68439 9.26306 4.41784C9.94983 3.87451 10.9176 3.60286 12.1664 3.60286C13.5027 3.60286 14.5304 3.93314 15.2496 4.59372C15.5366 4.86375 15.77 5.18752 15.9372 5.54742H13.3035L18.1408 10.1425L23 5.55238H19.8853C19.7134 4.93727 19.4504 4.35252 19.1053 3.81837C18.41 2.74672 17.4323 1.89672 16.2846 1.36598C15.0014 0.771901 13.6046 0.476581 12.1956 0.50145C9.89395 0.50145 8.02153 1.08606 6.57835 2.25528C5.13516 3.4245 4.41358 4.9108 4.41358 6.71417C4.41358 8.77516 5.41376 10.4464 7.41413 11.7279C8.73955 12.5163 10.1598 13.1258 11.6392 13.5412C13.4079 14.0862 14.6316 14.6245 15.3103 15.1563C15.989 15.6881 16.3283 16.4469 16.3283 17.4328C16.3414 17.8504 16.2572 18.2652 16.0828 18.6432C15.9084 19.0212 15.6487 19.3518 15.3249 19.6078C14.6576 20.1577 13.6598 20.4327 12.3316 20.4327C10.7929 20.4327 9.6113 20.0834 8.78686 19.3848C8.23681 18.9212 7.85034 18.2871 7.68624 17.579H10.6892L5.84462 12.9888L1 17.579H3.83047C3.96999 18.4957 4.31687 19.3667 4.84362 20.123C5.63817 21.2225 6.71284 22.0792 7.95107 22.6002C9.33089 23.2092 10.8209 23.5155 12.3243 23.4994C14.7264 23.4994 16.6296 22.9486 18.0339 21.8471C18.712 21.3326 19.2576 20.6582 19.6241 19.8817C19.9905 19.1051 20.1668 18.2495 20.1379 17.3882C20.1613 16.3376 19.9097 15.2996 19.409 14.381C18.8469 13.4497 18.0695 12.6731 17.1447 12.1193Z"
        fill="white" />
</svg>